<?xml version="1.0" encoding="UTF-8"?>
<svg version="1.1" xmlns="http://www.w3.org/2000/svg" width="1024" height="1024">
<path d="M0 0 C337.92 0 675.84 0 1024 0 C1024 337.92 1024 675.84 1024 1024 C686.08 1024 348.16 1024 0 1024 C0 686.08 0 348.16 0 0 Z " fill="#0E2D5F" transform="translate(0,0)"/>
<path d="M0 0 C1.299375 0.061875 2.59875 0.12375 3.9375 0.1875 C29.3638698 2.60209051 55.35264867 17.33801356 74 34 C75.12535156 34.92619141 75.12535156 34.92619141 76.2734375 35.87109375 C89.28854918 46.59698618 100.69051599 63.30323491 107 79 C107 79.99 107 80.98 107 82 C107.66 82 108.32 82 109 82 C109.25394531 82.90621094 109.50789063 83.81242187 109.76953125 84.74609375 C111.47445139 90.78036164 113.21021675 96.78405593 115.234375 102.72045898 C125.57633398 133.51219081 125.41389042 172.32756565 119 204 C118.7831958 205.081604 118.7831958 205.081604 118.56201172 206.18505859 C115.79078547 219.43354552 111.47922556 232.6270307 106 245 C105.34 245 104.68 245 104 245 C103.9175 245.67804688 103.835 246.35609375 103.75 247.0546875 C102.79334944 250.81153396 101.00486466 253.85035983 99 257.125 C98.59845703 257.78588623 98.19691406 258.44677246 97.78320312 259.12768555 C94.01834415 265.19272065 89.70593088 270.6347443 85 276 C84.31550781 276.82886719 83.63101562 277.65773438 82.92578125 278.51171875 C72.55871059 290.71841747 56.43760638 303.98074309 41 309 C40.01 309 39.02 309 38 309 C38 309.66 38 310.32 38 311 C4.74420009 322.01867669 -31.08721366 329.72819659 -66 321 C-66 296.91 -66 272.82 -66 248 C-63.03 248.33 -60.06 248.66 -57 249 C-52.57807023 249.1746928 -48.16081685 249.18583238 -43.7355957 249.18530273 C-41.70177111 249.18748469 -39.66849452 249.20568982 -37.63476562 249.22460938 C-16.49873773 249.25558548 4.02026078 244.22535112 19.71484375 229.3515625 C39.32705769 209.16942098 42.58865005 181.40049231 42.42602539 154.5065918 C42.23368865 143.62725389 40.92900947 133.46816051 38 123 C37.54947266 121.32357422 37.54947266 121.32357422 37.08984375 119.61328125 C31.48390503 101.04815953 21.99293943 87.50228233 5 78 C4.26265625 77.49855469 3.5253125 76.99710937 2.765625 76.48046875 C-1.11558365 74.4028161 -5.1212301 73.44173487 -9.375 72.375 C-10.2 72.1584375 -11.025 71.941875 -11.875 71.71875 C-35.23252799 65.71252852 -64.77604809 66.39095428 -86.03125 78.83007812 C-88.7402865 80.47704918 -91.37484105 82.22313045 -94 84 C-94.680625 84.46019531 -95.36125 84.92039062 -96.0625 85.39453125 C-112.48714539 97.97915538 -118.40430794 120.69751322 -121.03378296 140.10923767 C-122.53690802 152.4181163 -122.30905288 164.79390224 -122.31884766 177.17407227 C-122.32707639 179.88591298 -122.33824703 182.59773979 -122.34928894 185.30957031 C-122.37140938 191.11513824 -122.38651339 196.920689 -122.39665604 202.72628975 C-122.41133047 211.11988931 -122.43689092 219.51342894 -122.46498732 227.90699302 C-122.51029742 241.52969487 -122.54697692 255.15240543 -122.578125 268.77514648 C-122.60837556 281.99716721 -122.64275537 295.21916672 -122.68261719 308.44116211 C-122.68507874 309.25811959 -122.68754028 310.07507708 -122.69007643 310.91679085 C-122.70245229 315.01580986 -122.71490858 319.11482863 -122.72740483 323.21384728 C-122.83073595 357.14253963 -122.91840781 391.07124668 -123 425 C-150.72 425 -178.44 425 -207 425 C-207 285.41 -207 145.82 -207 2 C-179.28 2 -151.56 2 -123 2 C-123 9.59 -123 17.18 -123 25 C-121.35 23.68 -119.7 22.36 -118 21 C-117.34 21 -116.68 21 -116 21 C-116 20.34 -116 19.68 -116 19 C-112.34784961 16.97262518 -108.67739688 14.98118061 -105 13 C-104.08605469 12.49726563 -103.17210937 11.99453125 -102.23046875 11.4765625 C-78.15862622 -1.24953047 -25.78971587 -12.89485793 0 0 Z " fill="#E5F3F0" transform="translate(560,339)"/>
<path d="M0 0 C145.2 0 290.4 0 440 0 C440 38.94 440 77.88 440 118 C294.8 118 149.6 118 0 118 C0 79.06 0 40.12 0 0 Z " fill="#0D2C5E" transform="translate(297,0)"/>
<path d="M0 0 C200.31 0 400.62 0 607 0 C604.03 3.465 604.03 3.465 601 7 C600.00235118 8.22395464 599.0117686 9.45379118 598.03536999 10.69476414 C537.74046703 86.67455498 537.74046703 86.67455498 491.55170534 92.81098336 C472.23114421 94.99763855 452.72355785 95.00390247 433.31119024 94.60863453 C425.10840581 94.44633919 416.91780018 94.44284505 408.71408463 94.53744507 C406.92977825 94.55774199 406.92977825 94.55774199 405.10942528 94.57844895 C402.68905872 94.60651599 400.26869553 94.6348749 397.84833576 94.66352165 C375.40181828 94.91130634 352.97960222 94.6919882 330.53633751 94.30218875 C311.49247135 93.98292621 292.48895623 94.08803071 273.44726562 94.49121094 C85.75199234 98.3703982 85.75199234 98.3703982 41.18821466 56.49590397 C24.60759536 40.4948605 10.61599483 21.43200572 0 1 C0 0.67 0 0.34 0 0 Z " fill="#E49B24" transform="translate(213,119)"/>
<path d="M0 0 C28.05 0 56.1 0 85 0 C85 38.94 85 77.88 85 118 C56.95 118 28.9 118 0 118 C0 79.06 0 40.12 0 0 Z " fill="#1196D5" transform="translate(212,0)"/>
<path d="M0 0 C27.72 0 55.44 0 84 0 C84 38.94 84 77.88 84 118 C56.28 118 28.56 118 0 118 C0 79.06 0 40.12 0 0 Z " fill="#1297D6" transform="translate(737,0)"/>
</svg>
